<?xml version="1.0" ?>

<svg version="1.1"
      xmlns="http://www.w3.org/2000/svg"
     xmlns:xlink="http://www.w3.org/1999/xlink"
     height="100%"  viewBox="0 0 855 690"
     preserveAspectRatio="xMinYMin">

    <!-- hvid Ramme -->
    <rect x="0" y="0" height="700" width="880"
          style="stroke:#000000; fill: #ffffff" />


    <defs>
        <marker id="beginArrow" markerWidth="12" markerHeight="12" refX="0" refY="6" orient="auto">
            <path d="M0,6 L12,0 L12,12 L0,6" style="fill: #000000;" />
        </marker>
        <marker id="endArrow" markerWidth="12" markerHeight="12" refX="12" refY="6" orient="auto">
            <path d="M0,0 L12,6 L0,12 L0,0" style="fill: #000000;" />
        </marker>
    </defs>

    <!-- carport Ramme -->
    <svg version="1.1"
         xmlns="http://www.w3.org/2000/svg"
         xmlns:xlink="http://www.w3.org/1999/xlink"
         x="1"
         y="10"
         width="780"
         height="700"
         preserveAspectRatio="xMinYMin">

        <!-- vandret spær i toppen -->
        <rect x="70" y="45" height="4.5" width="750" style="stroke:#000000; fill: #ffffff"/>
        <!-- vandret spær i bunden -->
        <rect x="70" y="575" height="4.5" width="750" style="stroke:#000000; fill: #ffffff"/>

        <line x1="70" y1="10" x2="820" y2="10" style="stroke:#000000;"/>
        <line x1="70" y1="610" x2="820" y2="610" style="stroke:#000000;"/>

        <!-- lodrette Spær -->
        <rect x="70" y="10" height="600" width="4.5"
              style="stroke:#000000; fill: #ffffff"/>

        <rect x="120" y="10" height="600" width="4.5"
              style="stroke:#000000; fill: #ffffff"/>

        <rect x="170" y="10" height="600" width="4.5"
              style="stroke:#000000; fill: #ffffff"/>

        <rect x="220" y="10" height="600" width="4.5"
              style="stroke:#000000; fill: #ffffff"/>

        <rect x="270" y="10" height="600" width="4.5"
              style="stroke:#000000; fill: #ffffff"/>

        <rect x="320" y="10" height="600" width="4.5"
              style="stroke:#000000; fill: #ffffff"/>

        <rect x="370" y="10" height="600" width="4.5"
              style="stroke:#000000; fill: #ffffff"/>

        <rect x="420" y="10" height="600" width="4.5"
              style="stroke:#000000; fill: #ffffff"/>

        <rect x="470" y="10" height="600" width="4.5"
              style="stroke:#000000; fill: #ffffff"/>

        <rect x="520" y="10" height="600" width="4.5"
              style="stroke:#000000; fill: #ffffff"/>

        <rect x="570" y="10" height="600" width="4.5"
              style="stroke:#000000; fill: #ffffff"/>

        <rect x="620" y="10" height="600" width="4.5"
              style="stroke:#000000; fill: #ffffff"/>

        <rect x="670" y="10" height="600" width="4.5"
              style="stroke:#000000; fill: #ffffff"/>

        <rect x="720" y="10" height="600" width="4.5"
              style="stroke:#000000; fill: #ffffff"/>

        <rect x="770" y="10" height="600" width="4.5"
              style="stroke:#000000; fill: #ffffff"/>

        <rect x="815" y="10" height="600" width="4.5"
              style="stroke:#000000; fill: #ffffff"/>

        <!-- kryds -->
        <line stroke-dasharray="5, 5" x1="700" y1="580" x2="130" y2="45" stroke="black" />
        <line stroke-dasharray="5, 5" x1="130" y1="580" x2="700" y2="45" stroke="black" />

        <!-- stolper toppen -->
        <rect x="180" y="42" width="10" height="10" style="stroke:#000000; fill: #ffffff"/>
        <rect x="500" y="42" width="10" height="10" style="stroke:#000000; fill: #ffffff"/>
        <rect x="780" y="42" width="10" height="10" style="stroke:#000000; fill: #ffffff"/>

        <!-- stolper bund -->
        <rect x="180" y="572" width="10" height="10" style="stroke:#000000; fill: #ffffff"/>
        <rect x="500" y="572" width="10" height="10" style="stroke:#000000; fill: #ffffff"/>
        <rect x="780" y="572" width="10" height="10" style="stroke:#000000; fill: #ffffff"/>

    </svg>

    <!-- arrowPil til venstre -->
    <line x1="45" y1="20" x2="45" y2="620" style="stroke:#000000;
    marker-start: url(#beginArrow);
    marker-end: url(#endArrow);"/>
    <text style="text-anchor: middle" transform="translate(40,300) rotate(-90)">600 cm</text>

    <!-- arrowPil til bunden -->
    <line x1="70" y1="675" x2="820" y2="675" style="stroke:#000000;
    marker-start: url(#beginArrow);
    marker-end: url(#endArrow);"/>
    <text style="text-anchor: middle" x="445" y="690">780 cm</text>

    <!--   mål til Vandret spær (stiger 55)-->
    <line x1="70"  y1="640" x2="120"  y2="640" style="stroke: #000000; marker-start: url(#beginArrow);marker-end: url(#endArrow);"/>
    <text style="text-anchor: middle" transform="translate(95,660) rotate(0)">0,55</text>

    <line x1="120"  y1="640" x2="170"  y2="640" style="stroke: #000000; marker-start: url(#beginArrow);marker-end: url(#endArrow);"/>
    <text style="text-anchor: middle" transform="translate(145,660) rotate(0)">0,55</text>

    <line x1="170"  y1="640" x2="220"  y2="640" style="stroke: #000000; marker-start: url(#beginArrow);marker-end: url(#endArrow);"/>
    <text style="text-anchor: middle" transform="translate(195,660) rotate(0)">0,55</text>

    <line x1="270"  y1="640" x2="220"  y2="640" style="stroke: #000000; marker-start: url(#beginArrow);marker-end: url(#endArrow);"/>
    <text style="text-anchor: middle" transform="translate(245,660) rotate(0)">0,55</text>

    <line x1="320"  y1="640" x2="270"  y2="640" style="stroke: #000000; marker-start: url(#beginArrow);marker-end: url(#endArrow);"/>
    <text style="text-anchor: middle" transform="translate(295,660) rotate(0)">0,55</text>

    <line x1="370"  y1="640" x2="320"  y2="640" style="stroke: #000000; marker-start: url(#beginArrow);marker-end: url(#endArrow);"/>
    <text style="text-anchor: middle" transform="translate(345,660) rotate(0)">0,55</text>

    <line x1="420"  y1="640" x2="370"  y2="640" style="stroke: #000000; marker-start: url(#beginArrow);marker-end: url(#endArrow);"/>
    <text style="text-anchor: middle" transform="translate(395,660) rotate(0)">0,55</text>

    <line x1="470"  y1="640" x2="420"  y2="640" style="stroke: #000000; marker-start: url(#beginArrow);marker-end: url(#endArrow);"/>
    <text style="text-anchor: middle" transform="translate(445,660) rotate(0)">0,55</text>

    <line x1="520"  y1="640" x2="470"  y2="640" style="stroke: #000000; marker-start: url(#beginArrow);marker-end: url(#endArrow);"/>
    <text style="text-anchor: middle" transform="translate(495,660) rotate(0)">0,55</text>

    <line x1="570"  y1="640" x2="520"  y2="640" style="stroke: #000000; marker-start: url(#beginArrow);marker-end: url(#endArrow);"/>
    <text style="text-anchor: middle" transform="translate(545,660) rotate(0)">0,55</text>

    <line x1="620"  y1="640" x2="570"  y2="640" style="stroke: #000000; marker-start: url(#beginArrow);marker-end: url(#endArrow);"/>
    <text style="text-anchor: middle" transform="translate(595,660) rotate(0)">0,55</text>

    <line x1="670"  y1="640" x2="620"  y2="640" style="stroke: #000000; marker-start: url(#beginArrow);marker-end: url(#endArrow);"/>
    <text style="text-anchor: middle" transform="translate(645,660) rotate(0)">0,55</text>

    <line x1="720"  y1="640" x2="670"  y2="640" style="stroke: #000000; marker-start: url(#beginArrow);marker-end: url(#endArrow);"/>
    <text style="text-anchor: middle" transform="translate(695,660) rotate(0)">0,55</text>

    <line x1="770"  y1="640" x2="720"  y2="640" style="stroke: #000000; marker-start: url(#beginArrow);marker-end: url(#endArrow);"/>
    <text style="text-anchor: middle" transform="translate(745,660) rotate(0)">0,55</text>

    <line x1="820"  y1="640" x2="770"  y2="640" style="stroke: #000000; marker-start: url(#beginArrow);marker-end: url(#endArrow);"/>
    <text style="text-anchor: middle" transform="translate(795,660) rotate(0)">0,55</text>

    </svg>

