<?xml version="1.0" ?>

<svg version="1.1"
      xmlns="http://www.w3.org/2000/svg"
     xmlns:xlink="http://www.w3.org/1999/xlink"
     height="100%"  viewBox="0 0 855 690"
     preserveAspectRatio="xMinYMin">

    <defs>
        <marker id="beginArrow" markerWidth="12" markerHeight="12" refX="0" refY="6" orient="auto">
            <path d="M0,6 L12,0 L12,12 L0,6" style="fill: #000000;" />
        </marker>
        <marker id="endArrow" markerWidth="12" markerHeight="12" refX="12" refY="6" orient="auto">
            <path d="M0,0 L12,6 L0,12 L0,0" style="fill: #000000;" />
        </marker>
    </defs>

    <!-- Ramme -->


    <!-- Pile -->
    <line x1="45" y1="10" x2="40" y2="610" style="stroke:#000000;
    marker-start: url(#beginArrow);
    marker-end: url(#endArrow);"/>

    <line x1="75" y1="650" x2="855" y2="650" style="stroke:#000000;
    marker-start: url(#beginArrow);
    marker-end: url(#endArrow);"/>


    <!-- Text: mål -->
    <text style="text-anchor: middle" transform="translate(30,300) rotate(-90)">600 cm</text>
    <text style="text-anchor: middle" x="502" y="670">780 cm</text>


    <svg version="1.1" xmlns="http://www.w3.org/2000/svg" xmlns:xlink="http://www.w3.org/1999/xlink" x="75" y="10" width="800"></svg>

    <!-- Ramme -->
    <rect x="70" y="10" height="600" width="780" style="stroke:#000000; fill: #ffffff" />


    <!-- Ramme -->
    <rect x="70" y="45" height="4.5" width="780" style="stroke:#000000; fill: #ffffff"/>
    <rect x="70" y="575" height="4.5" width="780" style="stroke:#000000; fill: #ffffff"/>


    <!-- Spær -->
    <rect x="70" y="10" height="600" width="4.5" style="stroke:#000000; fill: #ffffff"/>
    <rect x="850" y="10" height="600" width="4.5" style="stroke:#000000; fill: #ffffff"/>

    <!-- strippede linje -->
    <line stroke-dasharray="5, 5" x1="700" y1="580" x2="130" y2="45" stroke="black" />
    <line stroke-dasharray="5, 5" x1="130" y1="580" x2="700" y2="45" stroke="black" />

    <!-- stolper toppen -->
    <rect x="180" y="42" width="10" height="10" style="stroke:#000000; fill: #ffffff"/>
    <rect x="500" y="42" width="10" height="10" style="stroke:#000000; fill: #ffffff"/>
    <rect x="780" y="42" width="10" height="10" style="stroke:#000000; fill: #ffffff"/>

    <!-- stolper bund -->
    <rect x="180" y="572" width="10" height="10" style="stroke:#000000; fill: #ffffff"/>
    <rect x="500" y="572" width="10" height="10" style="stroke:#000000; fill: #ffffff"/>
    <rect x="780" y="572" width="10" height="10" style="stroke:#000000; fill: #ffffff"/>

    </svg>

